<?xml version="1.0" encoding="utf-8"?>
<!-- Generator: Adobe Illustrator 27.2.0, SVG Export Plug-In . SVG Version: 6.00 Build 0)  -->
<svg version="1.2" baseProfile="tiny" id="Layer_1" xmlns="http://www.w3.org/2000/svg" xmlns:xlink="http://www.w3.org/1999/xlink"
	 x="0px" y="0px" viewBox="0 0 124.4 150" overflow="visible" xml:space="preserve">
<path fill="#007242" d="M3.1,7.4l5.6,2.4c9.5,4.1,18.2,5.8,26.5,4.8c8.2-1,16.2-4.7,24.2-11.3L62.3,1l2.9,2.4
	c8.1,6.6,16,10.3,24.2,11.3c8.3,1,17-0.7,26.5-4.8l5.6-2.4c3.4,16.1,4.3,32.9,2.1,49.3c-4.8,36.5-24.2,70-59.1,90.9l-2.3,1.4
	l-2.3-1.4C25.2,126.7,5.7,93.2,0.9,56.7C-1.2,40.3-0.3,23.6,3.1,7.4z"/>
<path fill-rule="evenodd" fill="#FFFFFF" d="M11.4,22.6c-0.5,4.3-0.8,8.6-0.9,12.9c-0.2,6.8,0.2,13.4,1,19.8
	c4.2,32.3,21,61.9,50.8,81.1c5-3.2,9.6-6.7,13.9-10.5c5.1-4.5,9.7-9.4,13.8-14.6c19.5-24.8,27.1-56.8,23.2-88.8
	c-8.6,2.8-16.8,3.8-24.8,2.8c-9-1.1-17.5-4.6-26-10.8c-8.5,6.2-17.1,9.7-26,10.8C28.2,26.4,20,25.4,11.4,22.6z M6.6,14.3
	c-8.8,49.9,9.2,101.2,55.7,129.1c46.5-27.9,64.5-79.2,55.7-129.1c-20.6,8.9-38,7.2-55.7-7.2C44.6,21.6,27.2,23.2,6.6,14.3z"/>
<path fill="#FFFFFF" d="M83.2,89.2c1.2-1.8,5.7,1.2,4.5,3l0,0.1c-0.8,1.1-1.7,2.2-2.5,3.1c-0.9,1-1.9,1.9-2.9,2.8
	c-5.3,4.4-12.2,7.1-19.6,7.1c-8.5,0-16.1-3.5-21.7-9c-5.6-5.6-9-13.2-9-21.7c0-8.5,3.5-16.1,9-21.7c5.6-5.6,13.2-9,21.7-9
	c5.2,0,10,1.3,14.3,3.6c0.7,0.4,1.4,0.8,2.1,1.2c3.4,2.2,6.4,5,8.7,8.3c1.2,1.7-3.3,4.7-4.4,3.1c-1.9-2.7-4.4-5.1-7.2-6.8h0
	c-0.6-0.4-1.1-0.7-1.7-1c-3.5-1.9-7.5-2.9-11.8-2.9c-7,0-13.3,2.8-17.9,7.4c-4.6,4.6-7.4,10.9-7.4,17.9c0,7,2.8,13.3,7.4,17.9
	c4.6,4.6,10.9,7.4,17.9,7.4c6.1,0,11.8-2.2,16.1-5.8c0.9-0.7,1.7-1.5,2.4-2.3C81.9,90.9,82.6,90,83.2,89.2z"/>
<path fill="#FFFFFF" d="M82.9,69.1c1.2,0,1.2,5.4,0,5.4c-16,0-11.1,0-18,0c0,5.2,0,9.5,0,39.9c0,1.2-5.4,1.2-5.4,0V38.7
	c-2.8,0-11.6,0-18.5,0c-1.2,0-1.2-5.4,0-5.4c12.9,0,38,0,50.8,0c1.2,0,1.2,5.4,0,5.4c-12.1,0-25.9,0-26.9,0c0,16.3,0,26,0,30.4
	C73.9,69.1,76.2,69.1,82.9,69.1z"/>
<path fill="#FFFFFF" d="M45.1,108.2c-0.1,1.3-6,0.8-5.9-0.5c0.7-8.2,1.5-16.1,2.9-24c1.3-7.8,3.2-15.3,6.1-22.4
	c0.3-0.8,0.7-1.7,1.3-2.4c0.9-1.1,2.1-1.8,3.7-1.8h18.2c1.7,0,2.8,0.7,3.7,1.8c0.6,0.7,1,1.5,1.3,2.4c2.9,7.1,4.8,14.6,6.1,22.4
	c1.4,7.8,2.1,15.8,2.9,24c0.1,1.3-5.8,1.8-5.9,0.5c-0.7-7.7-1.4-15.1-2.5-22H47.6C46.5,93.1,45.7,100.5,45.1,108.2z M53.6,63.5
	c-2.2,5.4-3.8,11-5,16.8h27.3c-1.2-5.8-2.8-11.5-5-16.8c-0.1-0.2-0.1-0.3-0.2-0.5H53.8C53.8,63.2,53.7,63.4,53.6,63.5z"/>
</svg>
