<?xml version="1.0" encoding="utf-8"?>
<!-- Generator: Adobe Illustrator 27.2.0, SVG Export Plug-In . SVG Version: 6.00 Build 0)  -->
<svg version="1.2" baseProfile="tiny" id="Layer_1" xmlns="http://www.w3.org/2000/svg" xmlns:xlink="http://www.w3.org/1999/xlink"
	 x="0px" y="0px" viewBox="0 0 124.4 150" overflow="visible" xml:space="preserve">
<path fill="#FFFFFF" d="M124.5,36v3.6c-0.2,1.4-0.1,2.8-0.2,4.2c-0.9,19.2-6.3,38.1-15.4,54.9c-1.3,2.5-2.8,4.9-4.3,7.4
	c-1.3,1.9-2.6,3.9-3.9,5.8c-1.8,2.4-3.4,4.8-5.3,7.1c-1.4,1.7-2.8,3.5-4.4,5.2c-1.6,1.8-3.2,3.6-4.9,5.3c-1.4,1.4-2.7,2.8-4.1,4.2
	c-1.5,1.4-3,2.8-4.5,4.1c-1.8,1.7-3.8,3.2-5.7,4.9c-3,2.6-6.4,4.8-9.5,7.4h-0.2c0,0,0-0.1,0-0.1c-3.1-2.5-6.4-4.7-9.4-7.3
	c-1.9-1.6-4-3.2-5.8-5c-2-1.8-4-3.6-5.9-5.6c-1.7-1.7-3.4-3.4-5-5.2c-1.3-1.4-2.6-2.9-3.8-4.3c-2.2-2.7-4.4-5.3-6.4-8.1
	c-2.1-2.7-3.9-5.6-5.8-8.4c-1.5-2.6-3.1-5.1-4.5-7.7C6.2,81.1,0.9,61.7,0.2,42.1c0-0.8,0-1.5-0.1-2.3v-4c0.1-1,0.1-2.1,0.1-3.1
	c0.2-4.5,0.6-9.1,1.6-13.6c3,1,6.1,2,9.2,2.5c6.2,1.2,12.7,1.3,18.9,0.1C38,20.3,45.6,16.4,52,11.1C55.9,7.9,59.5,4.2,62.3,0
	c1.9,3,4.3,5.6,6.8,8.1c5.8,5.6,12.8,10.1,20.6,12.5c6.6,2.1,13.7,2.7,20.6,1.7c4.3-0.5,8.4-1.7,12.4-3.1c1.1,5,1.5,10.1,1.7,15.2
	C124.4,34.9,124.4,35.5,124.5,36z"/>
<path fill="#1F1A17" d="M58.2,6.8c1.5-1.6,2.8-3.2,4.1-4.9c2.7,3.8,6,7.1,9.5,10.1c5.3,4.4,11.5,7.9,18.1,9.9
	c6.9,2.1,14.3,2.5,21.4,1.5c3.6-0.5,7.2-1.4,10.6-2.6c0.9,4.4,1.2,8.9,1.4,13.5c0.5,15.8-2.1,31.7-7.5,46.6
	c-3.8,10.6-9.1,20.6-15.5,29.9c-10.3,14.9-23.5,27.6-38.1,38.1c-8.2-5.9-15.9-12.5-23-19.7c-8.8-9.1-16.5-19.3-22.6-30.4
	C6,78.9,0.5,56.5,1.2,34.2c0.2-4.6,0.5-9.1,1.4-13.6c6.4,2.2,13.2,3.4,20,3.2c7.2-0.3,14.3-2.2,20.7-5.6
	C48.9,15.2,53.9,11.3,58.2,6.8z M62.3,9.7c-3.5,4.2-7.8,7.6-12.4,10.5c-6.1,3.7-12.9,6.3-20,7.5c-7.8,1.3-15.7,0.9-23.4-0.7
	c-0.3,1.7-0.5,3.4-0.6,5C5.1,42.2,6,52.7,8.1,62.8c1.6,7.5,3.9,14.9,6.8,22.1c5.2,12.4,12.5,23.9,21.2,34.1c7.7,9,16.6,17,26.1,24
	c8.4-6.2,16.3-13.1,23.3-20.9c7.4-8.2,13.9-17.2,19.1-27c7.2-13.5,11.9-28.4,13.5-43.7c0.8-8.2,1-16.5-0.2-24.7
	c-8.7,1.9-17.8,2.1-26.5,0.1c-7.3-1.6-14.2-4.8-20.2-9.1C68,15.5,64.9,12.8,62.3,9.7z"/>
<path fill="#1F1A17" d="M51.7,22.4c3.9-2.5,7.5-5.5,10.6-9c2.5,2.9,5.3,5.3,8.4,7.5c6.2,4.4,13.2,7.6,20.7,9.2
	c7.9,1.7,16.2,1.6,24.2-0.1c0.6,3.9,0.7,7.8,0.7,11.7c-0.1,5.4-0.6,10.8-1.5,16.1c-35,0-69.9,0-104.9,0c-0.8-5-1.3-10-1.4-15
	c-0.1-4.3,0-8.5,0.6-12.8c7.3,1.5,14.9,1.8,22.3,0.4C38.6,29.2,45.5,26.4,51.7,22.4z M26.9,35.2c-1.9,0.7-3.6,2.1-4.7,3.8
	c-1.5,2.5-1.9,5.7-1.1,8.5c0.6,2.3,2.1,4.3,4.2,5.5c2.4,1.4,5.5,1.6,8.1,0.8c2-0.6,3.9-1.8,4.9-3.6c-1.4-0.9-2.8-1.7-4.2-2.5
	c-0.5,1.3-1.7,2.1-3,2.3c-1.3,0.3-2.8,0.1-3.8-0.9c-1.2-1.1-1.7-2.9-1.7-4.5c0-1.6,0.4-3.4,1.6-4.6c0.9-0.9,2.3-1.2,3.6-1
	c1.3,0.1,2.7,0.7,3.4,1.9c1.4-0.8,2.7-1.7,4.1-2.5c-0.6-1-1.6-1.7-2.5-2.3C33,34.6,29.7,34.2,26.9,35.2z M57.8,35.1
	c-2.3,6.3-4.7,12.6-7.1,18.9c1.7,0,3.4,0,5.1,0c0.4-1.1,0.8-2.3,1.2-3.4c2.2,0,4.4,0,6.6,0c0.4,1.1,0.8,2.3,1.2,3.4
	c1.7,0,3.4,0,5.1,0c-2.4-6.3-4.7-12.6-7.1-18.9C61.2,35,59.5,35,57.8,35.1z M82.1,35c0,6.3,0,12.6,0,18.9c1.5,0,3.1,0,4.6,0
	c0-4.7,0-9.5,0-14.2c1.4,4.7,2.7,9.5,4,14.2c1.3,0,2.5,0,3.8,0c1.3-4.7,2.6-9.4,3.9-14.1c0,0.3,0.1,0.6,0.1,0.9c0,4.4,0,8.8,0,13.2
	c1.5,0,3.1,0,4.6,0c0-6.3,0-12.6,0-18.9c-2.4,0-4.8,0-7.2,0c-1.1,4.2-2.2,8.4-3.3,12.6c-1.2-4.2-2.2-8.4-3.3-12.6
	C87,35,84.6,35,82.1,35z"/>
<path fill="#1F1A17" d="M58.2,46.9c0.7-2.2,1.4-4.4,2.2-6.6c0.7,2.2,1.4,4.4,2.1,6.6C61,46.9,59.6,46.9,58.2,46.9z"/>
<path fill="#1F1A17" d="M10.5,61.7c6.2,0,12.4,0,18.6,0c0,14.5,0,29.1,0,43.6C20,92.3,13.6,77.3,10.5,61.7z"/>
<path fill="#1F1A17" d="M33.5,61.7c5.4,0,10.9,0,16.3,0c0,22.4,0,44.8,0,67.2c-4.5-4-8.7-8.4-12.6-13c-1.3-1.5-2.6-3-3.7-4.7
	C33.4,94.8,33.5,78.3,33.5,61.7z"/>
<path fill="#1F1A17" d="M54.1,61.7c5.4,0,10.9,0,16.3,0c0,23.7,0,47.4,0,71c-2.7,2.2-5.4,4.4-8.2,6.5c-2.8-2.1-5.5-4.2-8.1-6.4
	C54.1,109.1,54.1,85.4,54.1,61.7z"/>
<path fill="#1F1A17" d="M74.8,61.7c5.4,0,10.9,0,16.3,0c0,16.5,0,33,0,49.6c-4.9,6.3-10.4,12.2-16.3,17.6
	C74.8,106.5,74.8,84.1,74.8,61.7z"/>
<path fill="#1F1A17" d="M95.5,61.7c6.2,0,12.3,0,18.5,0c-2.8,14.1-8.3,27.7-16,39.8c-0.8,1.2-1.5,2.5-2.5,3.7
	C95.5,90.7,95.5,76.2,95.5,61.7z"/>
</svg>
