<?xml version="1.0" encoding="utf-8"?>
<!-- Generator: Adobe Illustrator 27.2.0, SVG Export Plug-In . SVG Version: 6.00 Build 0)  -->
<svg version="1.2" baseProfile="tiny" id="Layer_1" xmlns="http://www.w3.org/2000/svg" xmlns:xlink="http://www.w3.org/1999/xlink"
	 x="0px" y="0px" viewBox="0 0 150 150" overflow="visible" xml:space="preserve">
<path fill="#FFFFFF" d="M150.1,75c0,41.4-33.6,75-75,75c-41.4,0-75-33.6-75-75s33.6-75,75-75C116.5,0,150.1,33.5,150.1,75z"/>
<path fill-rule="evenodd" fill="#1E3D8E" d="M126.8,23.5c-6.8-6.8-14.9-12.2-23.7-15.8c-8.9-3.7-18.4-5.6-28-5.6
	c-19.4,0-37.9,7.7-51.6,21.3C9.7,37.1,2,55.6,1.9,75c0.1,19.4,7.8,37.9,21.5,51.6c13.7,13.7,32.3,21.3,51.6,21.3
	c19.4,0,37.9-7.7,51.6-21.3c13.7-13.7,21.5-32.2,21.5-51.6c0-9.6-1.9-19.1-5.6-27.9S133.6,30.2,126.8,23.5z M146.1,75
	c-0.1,18.8-7.6,36.8-20.9,50.1c-13.3,13.3-31.3,20.7-50.1,20.7c-18.8,0-36.8-7.4-50.1-20.7C11.6,111.8,4.1,93.8,4,75
	c0.1-18.8,7.6-36.8,20.9-50.1C38.3,11.7,56.3,4.2,75.1,4.2c18.8,0,36.8,7.4,50.1,20.7C138.5,38.2,146,56.2,146.1,75z"/>
<path fill-rule="evenodd" fill="#1E3D8E" d="M75.1,23.8c-28.1,0-51,23-51,51.2s22.9,51.2,51,51.2c28.1,0,51-23,51-51.2
	S103.1,23.8,75.1,23.8z"/>
<path fill-rule="evenodd" fill="#FFFFFF" d="M76.4,100.6l2,6.1h6.5l-5.2,3.8l2,6.1l-5.2-3.8l-5.2,3.8l2-6.1l-5.2-3.8h6.5L76.4,100.6
	z"/>
<path fill-rule="evenodd" fill="#FFFFFF" d="M103.9,57.9l2,6.1h6.5l-5.2,3.8l2,6.1l-5.2-3.8l-5.2,3.8l2-6.1L95.4,64h6.5L103.9,57.9z
	"/>
<path fill-rule="evenodd" fill="#FFFFFF" d="M83.4,70.1l1.5,4.6h4.8l-3.9,2.8l1.5,4.6l-3.9-2.8l-3.9,2.8l1.5-4.6l-3.9-2.8H82
	L83.4,70.1z"/>
<path fill-rule="evenodd" fill="#FFFFFF" d="M75.1,32.4l2,6.1h6.5l-5.2,3.8l2,6.1l-5.2-3.8l-5.2,3.8l2-6.1l-5.2-3.8h6.5L75.1,32.4z"
	/>
<path fill-rule="evenodd" fill="#FFFFFF" d="M47.1,57.3l2,6.1h6.5l-5.2,3.8l2,6.1l-5.2-3.8l-5.2,3.8l2-6.1l-5.2-3.8h6.5L47.1,57.3z"
	/>
<path fill="#1E3D8E" d="M24.6,37.9c-0.5-0.2-2-0.8-3,0.7c-1.1,1.7,0.1,3.3,1.7,4.4c1.6,1.1,3.6,1.6,4.7-0.1c0.8-1.2,0.3-2.3-0.7-3.2
	l2.4-3.5c2.4,1.6,3.6,5.2,1.3,8.6c-2.5,3.8-6.7,4.1-10.1,1.8c-3.7-2.5-4.6-6.4-2.1-10c2.2-3.2,5.1-3.8,8.2-2.2L24.6,37.9z"/>
<path fill="#1E3D8E" d="M27.9,25.8l6.5-5.2c1.9-1.5,4.4-1.8,6.1,0.3c0.9,1.1,1.4,2.8,0.6,4.1c1.2-0.4,2.6,0.2,3.8,1.4
	c0.5,0.5,1.5,1.8,2.3,2.1l-3.4,2.7c-0.6-0.4-1.1-0.9-1.6-1.5c-0.9-1-1.9-2-3.2-0.9l-1.8,1.5l3.1,3.8l-3.4,2.7L27.9,25.8z M35.2,27.8
	l1.8-1.4c0.6-0.5,1.4-1.3,0.6-2.3c-0.6-0.7-1.3-0.8-2.6,0.3l-1.6,1.3L35.2,27.8z"/>
<path fill="#1E3D8E" d="M59.8,17.3c1.4,3.6,0.1,6.2-3.9,7.7s-6.7,0.6-8.1-3.1l-3.1-8.1l4-1.6l2.8,7.2c0.5,1.3,1.2,3,3.1,2.3
	c1.9-0.8,1.3-2.4,0.7-3.8l-2.8-7.2l4-1.6L59.8,17.3z"/>
<path fill="#1E3D8E" d="M64.6,18.3l6-7.6l-6.2,0.5l-0.3-3.6l11.9-0.9l0.2,3.2l-6.1,7.8l6.9-0.5l0.3,3.6l-12.6,0.9L64.6,18.3z"/>
<path fill="#1E3D8E" d="M83.7,7.2l11.4,2.5l-0.8,3.5l-7.2-1.6l-0.4,1.7l6.5,1.4l-0.7,3.3l-6.5-1.4l-0.4,1.7l7.4,1.6l-0.8,3.5
	L80.7,21L83.7,7.2z"/>
<path fill="#1E3D8E" d="M101.7,12.4l3.9,1.8l-6,12.8l-3.9-1.8L101.7,12.4z"/>
<path fill="#1E3D8E" d="M111.9,17.6l6.5,5.1c1.9,1.5,2.8,3.9,1.1,6c-0.9,1.1-2.4,1.9-3.8,1.5c0.7,1.1,0.4,2.6-0.5,4
	c-0.4,0.6-1.4,1.9-1.5,2.7l-3.4-2.7c0.3-0.7,0.6-1.3,1.1-1.9c0.7-1.1,1.5-2.3,0.2-3.4l-1.8-1.4l-3,3.9l-3.4-2.7L111.9,17.6z
	 M111.5,25.1l1.8,1.4c0.6,0.5,1.6,1.1,2.4,0.1c0.6-0.7,0.5-1.4-0.8-2.4l-1.6-1.3L111.5,25.1z"/>
<path fill="#1E3D8E" d="M131.4,36.6c2.4,3.5,1.5,7.6-2.1,10.1c-3.6,2.4-7.7,1.8-10.1-1.8c-2.4-3.5-1.5-7.6,2.1-10.1
	C124.8,32.4,129,33,131.4,36.6z M122.1,42.9c0.6,0.9,2.2,1.9,4.8,0.1c2.6-1.8,2.3-3.6,1.6-4.5s-2.2-1.9-4.8-0.1
	C121.1,40.2,121.4,42,122.1,42.9L122.1,42.9z"/>
<path fill="#1E3D8E" d="M129.2,76.7L128.4,65l3.6-0.3l0.6,7.3l1.8-0.1l-0.5-6.7l3.4-0.3l0.5,6.7l1.8-0.1l-0.6-7.5l3.6-0.3l0.9,11.9
	L129.2,76.7z"/>
<path fill="#1E3D8E" d="M126.5,92.4l1.6-7.6c0.8-3.6,3-4,4.4-3.7c1.4,0.3,2,1.1,2.3,2.3c0.7-1.1,1.9-2.1,4-1.7
	c2.8,0.6,3.7,3.3,3.2,5.7l-1.7,7.8L126.5,92.4z M132.7,89.3l0.5-2.2c0.2-0.9,0.1-1.5-0.8-1.7c-0.7-0.1-1.1,0.4-1.3,1.2l-0.5,2.2
	L132.7,89.3z M137.9,90.4l0.5-2.5c0.2-0.9,0.1-1.7-1-1.9c-0.8-0.2-1.4,0.2-1.6,1.2l-0.6,2.7L137.9,90.4z"/>
<path fill="#1E3D8E" d="M132.8,100c3.4,1.9,4,4.7,1.9,8.4c-2.1,3.8-4.8,4.7-8.2,2.8l-7.6-4.2l2.1-3.8l6.7,3.8
	c1.3,0.7,2.8,1.6,3.9-0.3c1-1.8-0.6-2.7-1.8-3.4l-6.7-3.8l2.1-3.8L132.8,100z"/>
<path fill="#1E3D8E" d="M109.4,117l3.1-3.1l7.4,7.4l4.4-4.4l2.6,2.6l-7.5,7.5L109.4,117z"/>
<path fill="#1E3D8E" d="M105.8,125.8c-0.3-0.4-1.4-1.6-3-0.7c-1.8,1-1.4,3-0.5,4.7c0.9,1.7,2.4,3.1,4.2,2.1c1.3-0.7,1.3-1.9,0.9-3.2
	l3.7-2.1c1.4,2.5,0.8,6.3-2.8,8.3c-4,2.2-7.8,0.7-9.8-3c-2.2-3.9-1.1-7.8,2.7-9.9c3.4-1.9,6.3-1.1,8.3,1.8L105.8,125.8z"/>
<path fill="#1E3D8E" d="M72.6,129.4l11.7-0.7l0.2,3.6l-7.3,0.5l0.1,1.8l6.7-0.4l0.2,3.4l-6.7,0.4l0.1,1.8l7.5-0.5l0.2,3.6l-11.9,0.7
	L72.6,129.4z"/>
<path fill="#1E3D8E" d="M60.7,130.9l-3.9-0.8l0.8-3.5l12,2.6l-0.8,3.5l-3.9-0.8l-2.2,10.3l-4.3-0.9L60.7,130.9z"/>
<path fill="#1E3D8E" d="M43.9,119.5l7.3,4c2.2,1.2,3.4,3.4,2.1,5.7c-0.7,1.3-2,2.3-3.6,2.1c0.8,1,0.8,2.5,0.1,4.1
	c-0.3,0.6-1.1,2.1-1,2.9l-3.8-2.1c0.2-0.7,0.4-1.4,0.7-2.1c0.5-1.2,1.1-2.5-0.4-3.3l-2-1.1L41,134l-3.8-2.1L43.9,119.5z M44.8,127
	l2,1.1c0.7,0.4,1.7,0.8,2.4-0.3c0.4-0.8,0.2-1.5-1.2-2.3l-1.8-1L44.8,127z"/>
<path fill="#1E3D8E" d="M36.6,112.3c3,3.1,2.7,7.3-0.4,10.3c-3.1,3-7.3,3.1-10.3,0c-3-3.1-2.7-7.3,0.4-10.3S33.6,109.2,36.6,112.3z
	 M28.4,120.1c0.8,0.8,2.5,1.5,4.7-0.7c2.3-2.2,1.6-3.9,0.9-4.7c-0.8-0.8-2.5-1.5-4.7,0.7S27.7,119.3,28.4,120.1z"/>
<path fill="#1E3D8E" d="M24.4,94.2l3.3,6.5c1.7,3.4-0.2,5.9-2,6.8c-3.1,1.5-5.5,0.2-7-2.7l-1.2-2.3l-3.8,1.9l-2-3.9L24.4,94.2z
	 M20.6,101l0.8,1.5c0.5,1,1.1,2,2.4,1.4c1.1-0.6,0.8-1.5,0.3-2.4l-0.9-1.7L20.6,101z"/>
<path fill="#1E3D8E" d="M12.6,85.2c-0.3,0.1-0.6,0.2-0.9,0.4C11,86,11,87,11.1,87.8c0.1,0.7,0.6,1.7,1.6,1.5c0.7-0.1,0.8-0.8,1-3.3
	c0.2-2.3,0.3-4.9,3.1-5.5c3.2-0.6,5.1,1.8,5.7,4.7c0.6,3,0,5.9-3.4,6.7l-0.8-4c0.2,0,0.4-0.1,0.6-0.2c0.2-0.1,0.3-0.3,0.4-0.5
	c0.2-0.4,0.2-0.9,0.1-1.3c-0.1-0.6-0.5-1.5-1.2-1.4c-1,0.3-0.8,2.3-1,4.4S16.6,93,14,93.5c-3.6,0.7-5.4-2.4-6-5.5
	c-0.3-1.6-0.6-6.2,3.8-7.1L12.6,85.2z"/>
<path fill="#1E3D8E" d="M21.9,64.8l-0.9,11.6l-3.6-0.3l0.6-7.3l-1.8-0.1l-0.5,6.7L12.3,75l0.5-6.7l-1.8-0.1l-0.6,7.5l-3.6-0.3
	l1-11.9L21.9,64.8z"/>
</svg>
